<mxfile host="Electron" modified="2023-09-08T01:41:34.842Z" agent="Mozilla/5.0 (Windows NT 10.0; Win64; x64) AppleWebKit/537.36 (KHTML, like Gecko) draw.io/21.2.8 Chrome/112.0.5615.165 Electron/24.2.0 Safari/537.36" etag="x_7okwFD-N45xlfusaTF" version="21.2.8" type="device">
  <diagram name="페이지-1" id="q-GcxmTQzAo18KOpVpxX">
    <mxGraphModel dx="1098" dy="742" grid="1" gridSize="10" guides="1" tooltips="1" connect="1" arrows="1" fold="1" page="1" pageScale="1" pageWidth="827" pageHeight="1169" math="0" shadow="0">
      <root>
        <mxCell id="0" />
        <mxCell id="1" parent="0" />
        <mxCell id="6oyT_mRfFj-FwEPP-1Ra-2" value="" style="rounded=0;whiteSpace=wrap;html=1;" vertex="1" parent="1">
          <mxGeometry x="199" y="330" width="421" height="220" as="geometry" />
        </mxCell>
        <mxCell id="6oyT_mRfFj-FwEPP-1Ra-3" value="16 : 9" style="rounded=1;whiteSpace=wrap;html=1;" vertex="1" parent="1">
          <mxGeometry x="359.5" y="290" width="100" height="30" as="geometry" />
        </mxCell>
        <mxCell id="6oyT_mRfFj-FwEPP-1Ra-4" value="&lt;font style=&quot;font-size: 30px;&quot;&gt;1&lt;/font&gt;" style="rounded=1;whiteSpace=wrap;html=1;" vertex="1" parent="1">
          <mxGeometry x="260" y="340" width="220" height="200" as="geometry" />
        </mxCell>
        <mxCell id="6oyT_mRfFj-FwEPP-1Ra-5" value="&lt;font style=&quot;font-size: 25px;&quot;&gt;2&lt;/font&gt;" style="rounded=1;whiteSpace=wrap;html=1;" vertex="1" parent="1">
          <mxGeometry x="490" y="345" width="120" height="40" as="geometry" />
        </mxCell>
        <mxCell id="6oyT_mRfFj-FwEPP-1Ra-6" value="&lt;font style=&quot;font-size: 25px;&quot;&gt;3&lt;/font&gt;" style="rounded=1;whiteSpace=wrap;html=1;" vertex="1" parent="1">
          <mxGeometry x="490" y="395" width="120" height="40" as="geometry" />
        </mxCell>
        <mxCell id="6oyT_mRfFj-FwEPP-1Ra-7" value="&lt;font style=&quot;font-size: 25px;&quot;&gt;4&lt;/font&gt;" style="rounded=1;whiteSpace=wrap;html=1;" vertex="1" parent="1">
          <mxGeometry x="490" y="445" width="120" height="40" as="geometry" />
        </mxCell>
        <mxCell id="6oyT_mRfFj-FwEPP-1Ra-9" value="&lt;font style=&quot;font-size: 25px;&quot;&gt;5&lt;/font&gt;" style="rounded=1;whiteSpace=wrap;html=1;" vertex="1" parent="1">
          <mxGeometry x="490" y="495" width="120" height="40" as="geometry" />
        </mxCell>
        <mxCell id="6oyT_mRfFj-FwEPP-1Ra-10" value="&lt;font style=&quot;font-size: 25px;&quot;&gt;6&lt;/font&gt;" style="rounded=1;whiteSpace=wrap;html=1;" vertex="1" parent="1">
          <mxGeometry x="210" y="340" width="40" height="200" as="geometry" />
        </mxCell>
      </root>
    </mxGraphModel>
  </diagram>
</mxfile>
